<?xml version="1.0" standalone="no"?>
<!DOCTYPE svg PUBLIC "-//W3C//DTD SVG 1.1//EN" "http://www.w3.org/Graphics/SVG/1.1/DTD/svg11.dtd" >
<svg xmlns="http://www.w3.org/2000/svg" width="100%" height="100%">
<metadata>
Created by FontXChange 20110222 at Wed Jan 11 13:49:34 2017
 By Abacus Desk
Copyright (c) 1990 Adobe Systems Incorporated.  All Rights Reserved.Univers is a trademark of Linotype AG and/or its subsidiaries.
</metadata>
<defs>
<font id="Univers-LightUltraCondensed" horiz-adv-x="278" >
  <font-face 
    font-family="Univers"
    font-weight="300"
    font-stretch="condensed"
    units-per-em="1000"
    panose-1="0 0 0 0 0 0 0 0 0 0"
    ascent="800"
    descent="-200"
    x-height="545"
    cap-height="722"
    bbox="-57 -125 1000 875"
    underline-thickness="50"
    underline-position="-75"
    stemh="50"
    stemv="62"
    unicode-range="U+0020-FB02"
  />
<missing-glyph horiz-adv-x="138" 
 />
    <glyph glyph-name=".notdef" horiz-adv-x="138" 
 />
    <glyph glyph-name="space" unicode=" " horiz-adv-x="138" 
 />
    <glyph glyph-name="exclam" unicode="!" horiz-adv-x="258" 
d="M100 175l-8 547h74l-8 -547h-58zM96 0v76h66v-76h-66z" />
    <glyph glyph-name="quotedbl" unicode="&#x22;" 
d="M58 558v164h50v-164h-50zM170 558v164h50v-164h-50z" />
    <glyph glyph-name="numbersign" unicode="#" horiz-adv-x="276" 
d="M152 281l23 166h-50l-23 -166h50zM181 491l31 231h50l-31 -231h47v-44h-53l-23 -166h48v-44h-54l-32 -237h-50l32 237h-50l-32 -237h-50l32 237h-48v44h54l23 166h-49v44h55l31 231h50l-31 -231h50z" />
    <glyph glyph-name="dollar" unicode="$" horiz-adv-x="276" 
d="M177 536v71c0 32 -11 46 -36 46c-22 0 -40 -12 -40 -40v-79c0 -19 5 -34 15 -51l105 -180c20 -34 24 -60 24 -94v-83c0 -59 -29 -98 -81 -107v-76h-54v76c-27 3 -47 13 -60 28c-13 16 -19 38 -19 64v89h66v-81c0 -30 10 -50 41 -50c33 0 41 26 41 57v83
c0 20 -4 41 -17 63l-106 183c-15 26 -21 51 -21 75v77c0 53 28 86 75 96v75h54v-75c49 -5 79 -33 79 -91v-76h-66z" />
    <glyph glyph-name="percent" unicode="%" horiz-adv-x="480" 
d="M31 456v194c0 54 27 78 81 78s81 -24 81 -78v-194c0 -54 -27 -78 -81 -78s-81 24 -81 78zM139 449v208c0 18 -6 31 -27 31s-27 -13 -27 -31v-208c1 -16 6 -31 27 -31s27 15 27 31zM287 72v194c0 54 27 78 81 78s81 -24 81 -78v-194c0 -54 -27 -78 -81 -78s-81 24 -81 78z
M395 65v208c0 18 -6 31 -27 31s-27 -13 -27 -31v-208c1 -16 6 -31 27 -31s27 15 27 31zM90 -6l250 734h50l-250 -734h-50z" />
    <glyph glyph-name="ampersand" unicode="&#x26;" horiz-adv-x="370" 
d="M287 0l-14 36c-30 -32 -57 -42 -101 -42c-86 0 -127 50 -127 119v147c0 54 29 108 60 126l-22 41c-16 28 -25 73 -25 116v70c0 76 36 115 108 115c73 0 107 -26 107 -105v-80c0 -59 -15 -88 -52 -122l-44 -41l94 -220h2c2 11 4 27 4 43v155h54v-130
c0 -57 -5 -96 -20 -133l42 -95h-66zM247 75l-117 261c-17 -23 -23 -57 -23 -98v-108c0 -59 30 -86 76 -86c19 0 37 5 64 31zM215 533v84c0 32 -8 61 -48 61c-35 0 -47 -26 -47 -61v-70c0 -58 5 -71 28 -122c45 37 67 71 67 108z" />
    <glyph glyph-name="quoteright" unicode="&#x2019;" horiz-adv-x="168" 
d="M29 558l36 164h74l-56 -164h-54z" />
    <glyph glyph-name="parenleft" unicode="(" horiz-adv-x="167" 
d="M98 734h50c-30 -113 -55 -267 -55 -421c0 -140 16 -297 54 -421h-50c-45 124 -66 278 -66 421c0 175 30 324 67 421z" />
    <glyph glyph-name="parenright" unicode=")" horiz-adv-x="167" 
d="M69 -108h-50c30 113 55 267 55 421c0 140 -16 297 -54 421h50c45 -124 66 -278 66 -421c0 -175 -30 -324 -67 -421z" />
    <glyph glyph-name="asterisk" unicode="*" 
d="M140 631l34 91l52 -33l-58 -73l92 14v-59l-92 13l58 -73l-52 -31l-34 91h-2l-34 -91l-52 31l58 73l-92 -13v59l92 -14l-58 73l52 33l34 -91h2z" />
    <glyph glyph-name="plus" unicode="+" horiz-adv-x="600" 
d="M275 278v228h50v-228h228v-50h-228v-228h-50v228h-228v50h228z" />
    <glyph glyph-name="comma" unicode="," horiz-adv-x="138" 
d="M-4 -88l36 164h74l-56 -164h-54z" />
    <glyph glyph-name="hyphen" unicode="-" horiz-adv-x="166" 
d="M23 272v56h120v-56h-120z" />
    <glyph glyph-name="period" unicode="." horiz-adv-x="138" 
d="M36 0v76h66v-76h-66z" />
    <glyph glyph-name="slash" unicode="/" 
d="M15 -6l194 734h54l-194 -734h-54z" />
    <glyph glyph-name="zero" unicode="0" horiz-adv-x="276" 
d="M35 101v520c0 91 58 107 103 107s103 -16 103 -107v-520c0 -91 -58 -107 -103 -107s-103 16 -103 107zM179 94v534c0 18 0 50 -41 50s-41 -32 -41 -50v-534c0 -18 0 -50 41 -50s41 32 41 50z" />
    <glyph glyph-name="one" unicode="1" horiz-adv-x="276" 
d="M116 0v647c-15 -13 -47 -35 -66 -45v67c24 11 58 37 75 53h57v-722h-66z" />
    <glyph glyph-name="two" unicode="2" horiz-adv-x="276" 
d="M40 536v84c0 72 32 108 105 108c66 0 99 -41 99 -107v-70c0 -27 -6 -66 -16 -95l-139 -400h156v-56h-214v67l135 396c12 34 16 64 16 99v57c0 40 -13 59 -40 59s-40 -19 -40 -59v-83h-62z" />
    <glyph glyph-name="three" unicode="3" horiz-adv-x="276" 
d="M101 345v56h37c25 0 41 21 41 45v187c0 24 -16 45 -41 45s-41 -21 -41 -45v-100h-62v86c0 65 30 109 103 109s103 -44 103 -109v-164c0 -53 -16 -65 -52 -80v-2c36 -6 52 -22 52 -69v-201c0 -65 -30 -109 -103 -109s-103 44 -103 109v98h62v-112c0 -24 16 -45 41 -45
s41 21 41 45v211c0 24 -16 45 -41 45h-37z" />
    <glyph glyph-name="four" unicode="4" horiz-adv-x="276" 
d="M147 240v406h-2l-76 -406h78zM147 0v190h-128v73l100 459h94v-482h52v-50h-52v-190h-66z" />
    <glyph glyph-name="five" unicode="5" horiz-adv-x="276" 
d="M42 317v405h202v-56h-140v-244h2c13 20 35 33 60 33c50 0 83 -28 83 -93v-259c0 -65 -30 -109 -104 -109c-75 0 -105 44 -105 109v98h62v-98c0 -37 9 -59 43 -59c33 0 42 22 42 59v243c0 37 -9 59 -41 59c-33 0 -42 -22 -42 -59v-29h-62z" />
    <glyph glyph-name="six" unicode="6" horiz-adv-x="276" 
d="M179 519v116c0 24 -15 43 -40 43c-24 0 -42 -19 -42 -43v-216c19 15 40 26 66 26c47 0 78 -26 78 -87v-255c0 -65 -30 -109 -103 -109s-103 44 -103 109v516c0 65 30 109 103 109s103 -44 103 -109v-100h-62zM179 87v265c0 24 -18 43 -41 43s-41 -19 -41 -43v-265
c0 -24 18 -43 41 -43s41 19 41 43z" />
    <glyph glyph-name="seven" unicode="7" horiz-adv-x="276" 
d="M73 0l116 666h-160v56h218v-70l-108 -652h-66z" />
    <glyph glyph-name="eight" unicode="8" horiz-adv-x="276" 
d="M179 89v217c0 24 -16 45 -41 45s-41 -21 -41 -45v-217c0 -24 16 -45 41 -45s41 21 41 45zM179 446v187c0 24 -16 45 -41 45s-41 -21 -41 -45v-187c0 -24 16 -45 41 -45s41 21 41 45zM35 103v201c0 47 16 63 52 69v2c-36 15 -52 27 -52 80v164c0 65 30 109 103 109
s103 -44 103 -109v-164c0 -53 -16 -65 -52 -80v-2c36 -6 52 -22 52 -69v-201c0 -65 -30 -109 -103 -109s-103 44 -103 109z" />
    <glyph glyph-name="nine" unicode="9" horiz-adv-x="276" 
d="M179 87v216c-19 -15 -40 -26 -66 -26c-47 0 -78 26 -78 87v255c0 65 30 109 103 109s103 -44 103 -109v-516c0 -65 -30 -109 -103 -109s-103 44 -103 109v100h62v-116c0 -24 15 -43 40 -43c24 0 42 19 42 43zM179 370v265c0 24 -18 43 -41 43s-41 -19 -41 -43v-265
c0 -24 18 -43 41 -43s41 19 41 43z" />
    <glyph glyph-name="colon" unicode=":" horiz-adv-x="138" 
d="M36 0v76h66v-76h-66zM36 469v76h66v-76h-66z" />
    <glyph glyph-name="semicolon" unicode=";" horiz-adv-x="138" 
d="M-4 -88l36 164h74l-56 -164h-54zM36 469v76h66v-76h-66z" />
    <glyph glyph-name="less" unicode="&#x3c;" horiz-adv-x="600" 
d="M47 225v56l506 231v-56l-444 -203l444 -203v-56z" />
    <glyph glyph-name="equal" unicode="=" horiz-adv-x="600" 
d="M47 325v50h506v-50h-506zM47 131v50h506v-50h-506z" />
    <glyph glyph-name="greater" unicode="&#x3e;" horiz-adv-x="600" 
d="M491 253l-444 203v56l506 -231v-56l-506 -231v56z" />
    <glyph glyph-name="question" unicode="?" 
d="M42 535v92c0 56 27 101 98 101c70 0 96 -33 96 -84v-103c0 -30 -5 -59 -15 -87l-34 -93c-10 -26 -12 -54 -12 -82v-104h-58v106c0 37 3 75 16 110l26 69c8 20 11 42 11 64v112c0 23 -13 36 -32 36c-21 0 -34 -20 -34 -43v-94h-62zM113 0v76h66v-76h-66z" />
    <glyph glyph-name="at" unicode="@" horiz-adv-x="800" 
d="M237 292c0 -61 39 -102 98 -102c103 0 181 153 181 240c0 55 -32 100 -92 100c-112 0 -187 -143 -187 -238zM546 495l26 65h54l-102 -286c-9 -25 -13 -41 -13 -56c0 -18 8 -34 34 -34c83 0 172 138 172 242c0 157 -143 258 -299 258c-189 0 -335 -151 -335 -327
c0 -175 154 -319 337 -319c104 0 214 52 277 136h53c-63 -111 -196 -180 -330 -180c-219 0 -387 166 -387 370c0 201 175 364 383 364c195 0 351 -129 351 -305c0 -153 -129 -283 -230 -283c-43 0 -74 22 -76 69h-2c-38 -39 -84 -69 -141 -69c-82 0 -135 67 -135 156
c0 131 101 284 242 284c54 0 96 -25 121 -85z" />
    <glyph glyph-name="A" unicode="A" horiz-adv-x="332" 
d="M251 0l-27 200h-116l-27 -200h-66l106 722h90l106 -722h-66zM217 256l-50 416h-2l-50 -416h102z" />
    <glyph glyph-name="B" unicode="B" horiz-adv-x="333" 
d="M117 403h44c31 0 49 9 49 52v162c0 42 -22 49 -56 49h-37v-263zM51 0v722h123c63 0 102 -11 102 -83v-183c0 -56 -21 -76 -72 -78v-2c46 -2 75 -17 75 -67v-226c0 -72 -39 -83 -105 -83h-123zM117 56h40c34 0 56 7 56 49v198c0 35 -21 44 -52 44h-44v-291z" />
    <glyph glyph-name="C" unicode="C" 
d="M191 533v93c0 31 -11 46 -37 46s-37 -15 -37 -46v-530c0 -31 11 -46 37 -46s37 15 37 46v101h66v-103c0 -61 -34 -100 -103 -100s-103 39 -103 100v534c0 61 34 100 103 100s103 -39 103 -100v-95h-66z" />
    <glyph glyph-name="D" unicode="D" horiz-adv-x="333" 
d="M54 0v722h113c90 0 112 -46 112 -117v-488c0 -71 -22 -117 -112 -117h-113zM120 56h35c44 0 58 14 58 56v498c0 42 -14 56 -58 56h-35v-610z" />
    <glyph glyph-name="E" unicode="E" horiz-adv-x="259" 
d="M51 0v722h175v-56h-109v-263h104v-56h-104v-291h109v-56h-175z" />
    <glyph glyph-name="F" unicode="F" horiz-adv-x="259" 
d="M51 0v722h175v-56h-109v-263h104v-56h-104v-347h-66z" />
    <glyph glyph-name="G" unicode="G" horiz-adv-x="333" 
d="M163 298v56h119v-338c-35 -14 -70 -22 -104 -22c-91 0 -124 44 -124 127v493c0 75 42 114 114 114s114 -39 114 -114v-81h-66v72c0 40 -10 67 -48 67s-48 -27 -48 -67v-483c0 -59 29 -72 52 -72c18 0 35 4 44 10v238h-53z" />
    <glyph glyph-name="H" unicode="H" horiz-adv-x="333" 
d="M216 403v319h66v-722h-66v347h-99v-347h-66v722h66v-319h99z" />
    <glyph glyph-name="I" unicode="I" horiz-adv-x="168" 
d="M51 0v722h66v-722h-66z" />
    <glyph glyph-name="J" unicode="J" 
d="M161 93v629h66v-625c0 -72 -41 -103 -103 -103c-70 0 -103 36 -103 100v104h66v-104c0 -31 17 -44 37 -44c21 0 37 13 37 43z" />
    <glyph glyph-name="K" unicode="K" 
d="M119 412l80 310h66l-95 -330l104 -392h-66l-89 362h-2v-362h-66v722h66v-310h2z" />
    <glyph glyph-name="L" unicode="L" horiz-adv-x="259" 
d="M51 0v722h66v-666h109v-56h-175z" />
    <glyph glyph-name="M" unicode="M" horiz-adv-x="444" 
d="M223 76l74 646h102v-722h-58v666h-2l-76 -666h-82l-76 666h-2v-666h-58v722h102l74 -646h2z" />
    <glyph glyph-name="N" unicode="N" horiz-adv-x="333" 
d="M227 104v618h58v-722h-94l-83 642h-2v-642h-58v722h96l81 -618h2z" />
    <glyph glyph-name="O" unicode="O" horiz-adv-x="334" 
d="M51 116v490c0 71 27 122 116 122s116 -51 116 -122v-490c0 -71 -27 -122 -116 -122s-116 51 -116 122zM117 604v-486c0 -40 8 -68 50 -68s50 28 50 68v486c0 40 -8 68 -50 68s-50 -28 -50 -68z" />
    <glyph glyph-name="P" unicode="P" 
d="M51 0v722h105c85 0 110 -28 110 -110v-177c0 -82 -25 -110 -110 -110h-39v-325h-66zM117 381h32c30 0 51 8 51 45v195c0 37 -21 45 -51 45h-32v-285z" />
    <glyph glyph-name="Q" unicode="Q" horiz-adv-x="334" 
d="M264 50l38 6h20v-56h-113c-5 -2 -12 -3 -19 -4s-15 -2 -24 -2c-88 0 -115 51 -115 122v490c0 71 27 122 115 122c87 0 114 -51 114 -122v-490c0 -24 -3 -49 -16 -66zM214 118v486c0 40 -8 68 -48 68c-41 0 -49 -28 -49 -68v-486c0 -40 8 -68 49 -68c40 0 48 28 48 68z
" />
    <glyph glyph-name="R" unicode="R" horiz-adv-x="333" 
d="M117 403h44c31 0 49 9 49 52v162c0 42 -22 49 -56 49h-37v-263zM213 0v303c0 35 -21 44 -52 44h-44v-347h-66v722h123c63 0 102 -11 102 -83v-183c0 -56 -21 -75 -72 -78v-2c47 -3 75 -17 75 -67v-309h-66z" />
    <glyph glyph-name="S" unicode="S" 
d="M178 535v88c0 28 -7 49 -38 49s-38 -21 -38 -49v-76c0 -23 4 -46 15 -65l105 -180c15 -25 24 -56 24 -88v-114c0 -68 -40 -106 -106 -106c-73 0 -108 33 -108 106v99h66v-95c0 -34 13 -54 42 -54c27 0 40 20 40 54v101c0 25 -5 44 -19 69l-97 169c-18 31 -28 55 -28 92
v87c0 71 37 106 104 106c74 0 104 -35 104 -101v-92h-66z" />
    <glyph glyph-name="T" unicode="T" horiz-adv-x="260" 
d="M97 0v666h-74v56h214v-56h-74v-666h-66z" />
    <glyph glyph-name="U" unicode="U" horiz-adv-x="334" 
d="M217 118v604h66v-625c0 -80 -60 -103 -117 -103c-55 0 -115 23 -115 103v625h66v-604c0 -52 17 -68 50 -68c34 0 50 16 50 68z" />
    <glyph glyph-name="V" unicode="V" 
d="M140 66l65 656h66l-84 -722h-96l-84 722h66l65 -656h2z" />
    <glyph glyph-name="W" unicode="W" horiz-adv-x="444" 
d="M320 76l50 646h62l-73 -722h-86l-50 642h-2l-50 -642h-86l-73 722h62l54 -646h2l51 646h82l55 -646h2z" />
    <glyph glyph-name="X" unicode="X" 
d="M140 429l57 293h66l-85 -359l92 -363h-66l-64 304h-2l-64 -304h-66l94 363l-87 359h66l57 -293h2z" />
    <glyph glyph-name="Y" unicode="Y" 
d="M140 394l63 328h66l-97 -408v-314h-66v314l-97 408h66l63 -328h2z" />
    <glyph glyph-name="Z" unicode="Z" horiz-adv-x="259" 
d="M24 68l149 598h-140v56h202v-56l-149 -610h148v-56h-210v68z" />
    <glyph glyph-name="bracketleft" unicode="[" horiz-adv-x="167" 
d="M48 -108v842h115v-44h-61v-754h61v-44h-115z" />
    <glyph glyph-name="backslash" unicode="\" 
d="M209 -6l-194 734h54l194 -734h-54z" />
    <glyph glyph-name="bracketright" unicode="]" horiz-adv-x="167" 
d="M65 -64v754h-61v44h115v-842h-115v44h61z" />
    <glyph glyph-name="asciicircum" unicode="^" horiz-adv-x="600" 
d="M499 269l-199 393l-199 -393h-58l230 453h54l230 -453h-58z" />
    <glyph glyph-name="underscore" unicode="_" horiz-adv-x="500" 
d="M500 -125h-500v50h500v-50z" />
    <glyph glyph-name="quoteleft" unicode="&#x2018;" horiz-adv-x="168" 
d="M29 558l56 164h54l-36 -164h-74z" />
    <glyph glyph-name="a" unicode="a" 
d="M180 100v187c-32 0 -82 -13 -82 -59v-124c0 -39 6 -60 39 -60c27 0 43 20 43 56zM180 337v118c0 33 -11 46 -36 46c-35 0 -40 -21 -40 -53v-51h-62v64c0 56 47 90 104 90c60 0 96 -25 96 -95v-456h-58v29h-2c-17 -21 -35 -35 -72 -35c-48 0 -74 35 -74 90v148
c0 68 46 105 144 105z" />
    <glyph glyph-name="b" unicode="b" 
d="M36 0v722h62v-210h2c8 14 18 24 30 30s26 9 41 9c43 0 71 -36 71 -85v-366c0 -82 -40 -106 -80 -106c-37 0 -51 19 -66 40h-2v-34h-58zM180 102v330c0 40 -12 63 -37 63c-27 0 -45 -26 -45 -60v-331c0 -44 21 -60 46 -60s36 20 36 58z" />
    <glyph glyph-name="c" unicode="c" horiz-adv-x="259" 
d="M161 372v84c0 34 -9 45 -29 45c-21 0 -34 -14 -34 -45v-371c0 -28 8 -41 31 -41s32 16 32 41v88h62v-87c0 -59 -33 -92 -93 -92c-50 0 -94 25 -94 82v370c0 83 50 105 103 105c54 0 84 -29 84 -88v-91h-62z" />
    <glyph glyph-name="d" unicode="d" 
d="M184 0v34h-2c-15 -21 -29 -40 -66 -40c-40 0 -80 24 -80 106v366c0 49 28 85 71 85c31 0 55 -11 71 -39h2v210h62v-722h-58zM180 104v331c0 34 -18 60 -45 60c-25 0 -37 -23 -37 -63v-330c0 -38 11 -58 36 -58s46 16 46 60z" />
    <glyph glyph-name="e" unicode="e" 
d="M180 313v133c0 40 -16 55 -41 55s-41 -15 -41 -55v-133h82zM180 99v77h62v-77c0 -83 -50 -105 -103 -105s-103 22 -103 105v347c0 83 50 105 103 105s103 -22 103 -105v-189h-144v-158c0 -40 16 -55 41 -55s41 15 41 55z" />
    <glyph glyph-name="f" unicode="f" horiz-adv-x="167" 
d="M46 545v100c0 50 15 83 78 83h28v-50h-13c-19 0 -31 -9 -31 -41v-92h44v-50h-44v-495h-62v495h-31v50h31z" />
    <glyph glyph-name="g" unicode="g" 
d="M184 509v36h58v-542c0 -74 -35 -111 -108 -111c-43 0 -95 25 -95 87v20h62v-16c0 -34 18 -47 39 -47c26 0 40 21 40 48v74h-2c-16 -20 -39 -33 -65 -33c-38 0 -77 25 -77 94v346c0 48 28 86 78 86c31 0 56 -21 68 -42h2zM180 141v310c0 32 -24 44 -47 44
c-22 0 -35 -17 -35 -54v-317c0 -19 10 -43 38 -43c33 0 44 26 44 60z" />
    <glyph glyph-name="h" unicode="h" 
d="M36 0v722h62v-214h2c12 23 38 43 70 43c49 0 72 -38 72 -82v-469h-62v445c0 29 -11 50 -39 50c-29 0 -43 -28 -43 -50v-445h-62z" />
    <glyph glyph-name="i" unicode="i" horiz-adv-x="148" 
d="M43 0v545h62v-545h-62zM41 646v76h66v-76h-66z" />
    <glyph glyph-name="j" unicode="j" horiz-adv-x="148" 
d="M41 -19v564h62v-584c0 -53 -42 -69 -71 -69c-14 0 -24 2 -31 5v47c5 -1 10 -2 15 -2c16 0 25 13 25 39zM39 646v76h66v-76h-66z" />
    <glyph glyph-name="k" unicode="k" 
d="M36 0v722h62v-397h2l90 220h66l-103 -231l111 -314h-66l-98 293h-2v-293h-62z" />
    <glyph glyph-name="l" unicode="l" horiz-adv-x="148" 
d="M43 0v722h62v-722h-62z" />
    <glyph glyph-name="m" unicode="m" horiz-adv-x="406" 
d="M39 0v545h58v-37h2c19 28 39 43 72 43c23 0 45 -12 58 -34c17 21 37 34 64 34c51 0 74 -38 74 -82v-469h-62v448c0 30 -8 47 -31 47c-25 0 -40 -23 -40 -50v-445h-62v448c0 30 -8 47 -31 47c-25 0 -40 -23 -40 -50v-445h-62z" />
    <glyph glyph-name="n" unicode="n" 
d="M36 0v545h58v-37h2c14 23 40 43 72 43c51 0 74 -38 74 -82v-469h-62v445c0 29 -11 50 -39 50c-29 0 -43 -28 -43 -50v-445h-62z" />
    <glyph glyph-name="o" unicode="o" 
d="M180 99v347c0 40 -16 55 -41 55s-41 -15 -41 -55v-347c0 -40 16 -55 41 -55s41 15 41 55zM36 99v347c0 83 50 105 103 105s103 -22 103 -105v-347c0 -83 -50 -105 -103 -105s-103 22 -103 105z" />
    <glyph glyph-name="p" unicode="p" 
d="M36 -108v653h58v-34h2c10 25 31 40 66 40c40 0 80 -24 80 -106v-366c0 -49 -28 -85 -71 -85c-32 0 -58 15 -71 40h-2v-142h-62zM180 113v330c0 38 -11 58 -36 58s-46 -16 -46 -60v-331c0 -34 18 -60 45 -60c25 0 37 23 37 63z" />
    <glyph glyph-name="q" unicode="q" 
d="M180 -108v142h-2c-13 -25 -39 -40 -71 -40c-43 0 -71 36 -71 85v366c0 82 40 106 80 106c35 0 56 -15 66 -40h2v34h58v-653h-62zM180 110v331c0 44 -21 60 -46 60s-36 -20 -36 -58v-330c0 -40 12 -63 37 -63c27 0 45 26 45 60z" />
    <glyph glyph-name="r" unicode="r" horiz-adv-x="204" 
d="M36 0v545h58v-38h2c19 29 44 44 83 44v-62c-60 0 -81 -23 -81 -80v-409h-62z" />
    <glyph glyph-name="s" unicode="s" horiz-adv-x="259" 
d="M163 383v81c0 25 -12 37 -32 37c-25 0 -32 -18 -32 -39v-61c0 -16 7 -31 23 -54l78 -109c15 -21 22 -35 22 -60v-92c0 -59 -33 -92 -93 -92c-51 0 -92 24 -92 85v95h62v-84c0 -25 4 -46 31 -46c25 0 30 22 30 47v66c0 20 -8 40 -23 60l-71 97c-18 24 -29 43 -29 73v70
c0 60 41 94 97 94c66 0 87 -45 87 -78v-90h-58z" />
    <glyph glyph-name="t" unicode="t" horiz-adv-x="167" 
d="M46 545v73l62 24v-97h44v-50h-44v-414c0 -25 13 -31 31 -31h13v-50h-30c-52 0 -76 25 -76 67v428h-31v50h31z" />
    <glyph glyph-name="u" unicode="u" 
d="M242 545v-545h-58v37h-2c-14 -23 -40 -43 -72 -43c-51 0 -74 38 -74 82v469h62v-445c0 -29 11 -50 39 -50c29 0 43 28 43 50v445h62z" />
    <glyph glyph-name="v" unicode="v" horiz-adv-x="258" 
d="M83 0l-65 545h58l52 -461h2l52 461h58l-65 -545h-92z" />
    <glyph glyph-name="w" unicode="w" horiz-adv-x="406" 
d="M76 0l-58 545h55l46 -461h2l40 461h84l40 -461h2l46 461h55l-58 -545h-85l-41 473h-2l-41 -473h-85z" />
    <glyph glyph-name="x" unicode="x" horiz-adv-x="258" 
d="M18 0l82 281l-72 264h60l40 -162h2l40 162h60l-72 -264l82 -281h-60l-50 192h-2l-50 -192h-60z" />
    <glyph glyph-name="y" unicode="y" horiz-adv-x="259" 
d="M241 545l-104 -653h-62l22 108l-79 545h62l44 -367h2l53 367h62z" />
    <glyph glyph-name="z" unicode="z" horiz-adv-x="204" 
d="M18 72l104 423h-98v50h160v-54l-108 -441h110v-50h-168v72z" />
    <glyph glyph-name="braceleft" unicode="{" horiz-adv-x="167" 
d="M15 293v40c32 0 39 25 39 64v263c0 42 16 74 60 74h38v-40h-18c-18 0 -26 -13 -26 -33v-264c0 -51 -19 -74 -39 -83v-2c20 -9 39 -32 39 -83v-264c0 -20 8 -33 26 -33h18v-40h-38c-44 0 -60 32 -60 74v263c0 39 -7 64 -39 64z" />
    <glyph glyph-name="bar" unicode="|" horiz-adv-x="222" 
d="M86 -6v734h50v-734h-50z" />
    <glyph glyph-name="braceright" unicode="}" horiz-adv-x="167" 
d="M152 333v-40c-32 0 -39 -25 -39 -64v-263c0 -42 -16 -74 -60 -74h-38v40h18c18 0 26 13 26 33v264c0 51 19 74 39 83v2c-20 9 -39 32 -39 83v264c0 20 -8 33 -26 33h-18v40h38c44 0 60 -32 60 -74v-263c0 -39 7 -64 39 -64z" />
    <glyph glyph-name="asciitilde" unicode="~" horiz-adv-x="600" 
d="M105 190l-36 36c24 51 67 86 125 86c37 0 78 -17 115 -34c38 -17 73 -34 98 -34c31 0 57 23 88 72l36 -36c-24 -51 -67 -86 -125 -86c-37 0 -78 17 -115 34c-38 17 -73 34 -98 34c-31 0 -57 -23 -88 -72z" />
    <glyph glyph-name="exclamdown" unicode="&#xa1;" horiz-adv-x="258" 
d="M92 -102l8 547h58l8 -547h-74zM96 544v76h66v-76h-66z" />
    <glyph glyph-name="cent" unicode="&#xa2;" horiz-adv-x="276" 
d="M115 -54v81c-19 3 -37 11 -50 24c-12 13 -21 32 -21 55v370c0 66 32 93 71 101v82h50v-79c22 -3 38 -12 50 -26c11 -15 17 -35 17 -61v-91h-62v84c0 31 -14 45 -32 45s-32 -14 -32 -45v-371c0 -28 9 -41 32 -41s32 16 32 41v88h62v-87c0 -50 -24 -81 -67 -89v-81h-50z
" />
    <glyph glyph-name="sterling" unicode="&#xa3;" horiz-adv-x="276" 
d="M219 575v67c0 25 -17 36 -35 36c-20 0 -35 -11 -35 -45v-216h96v-56h-96v-305h124v-56h-245v56h55v305h-57v56h57v198c0 67 31 113 99 113s99 -36 99 -93v-60h-62z" />
    <glyph glyph-name="fraction" unicode="&#x2044;" horiz-adv-x="130" 
d="M-57 0l194 722h50l-194 -722h-50z" />
    <glyph glyph-name="yen" unicode="&#xa5;" horiz-adv-x="276" 
d="M105 0v211h-90v50h90v53l-5 21h-85v50h73l-80 337h66l63 -328h2l63 328h66l-80 -337h73v-50h-85l-5 -21v-53h90v-50h-90v-211h-66z" />
    <glyph glyph-name="florin" unicode="&#x192;" horiz-adv-x="276" 
d="M104 500l8 136c3 58 27 92 80 92c13 0 22 -1 32 -2v-50c-5 1 -11 2 -17 2c-16 0 -31 -16 -33 -46l-8 -132h48l-4 -50h-46l-18 -472c-2 -50 -21 -86 -76 -86c-14 0 -25 2 -36 7v50c8 -5 15 -7 23 -7c17 0 25 15 27 57l18 451h-46l4 50h44z" />
    <glyph glyph-name="section" unicode="&#xa7;" 
d="M180 576v48c0 32 -11 54 -38 54c-29 0 -40 -23 -40 -48c0 -31 5 -46 20 -63l99 -114c14 -16 21 -33 21 -56v-65c0 -26 -5 -45 -58 -91c49 -46 61 -65 61 -100v-49c0 -66 -39 -98 -106 -98c-72 0 -106 37 -106 95v70h62v-52c0 -29 13 -63 43 -63c25 0 41 22 41 51v34
c0 19 -13 40 -46 72l-57 55c-17 16 -39 50 -39 78v55c0 37 22 70 65 108c-31 30 -62 65 -62 108v40c0 48 33 83 101 83c71 0 101 -33 101 -93v-59h-62zM180 350v32c0 23 -4 41 -46 82c-25 -28 -35 -46 -35 -76v-33c0 -27 13 -50 50 -82c27 32 31 60 31 77z" />
    <glyph glyph-name="currency" unicode="&#xa4;" horiz-adv-x="276" 
d="M207 361c0 38 -31 69 -69 69s-69 -31 -69 -69s31 -69 69 -69s69 31 69 69zM207 458l27 27l28 -28l-28 -28c15 -19 23 -43 23 -68s-8 -49 -23 -68l28 -28l-28 -28l-27 27c-18 -13 -42 -22 -69 -22s-51 9 -69 22l-27 -27l-28 28l28 28c-15 19 -23 43 -23 68s8 49 23 68
l-28 28l28 28l27 -27c18 13 42 22 69 22s51 -9 69 -22z" />
    <glyph glyph-name="quotesingle" unicode="'" horiz-adv-x="168" 
d="M59 558v164h50v-164h-50z" />
    <glyph glyph-name="quotedblleft" unicode="&#x201c;" 
d="M24 558l56 164h54l-36 -164h-74zM144 558l56 164h54l-36 -164h-74z" />
    <glyph glyph-name="guillemotleft" unicode="&#xab;" 
d="M207 88l-61 214l57 210h54l-49 -210l49 -214h-50zM82 88l-61 214l57 210h54l-49 -210l49 -214h-50z" />
    <glyph glyph-name="guilsinglleft" unicode="&#x2039;" horiz-adv-x="167" 
d="M28 302l57 210h54l-49 -210l49 -214h-50z" />
    <glyph glyph-name="guilsinglright" unicode="&#x203a;" horiz-adv-x="167" 
d="M77 298l-49 214h50l61 -214l-57 -210h-54z" />
    <glyph glyph-name="fi" unicode="&#xfb01;" horiz-adv-x="315" 
d="M210 0v545h62v-545h-62zM208 646v76h66v-76h-66zM46 0v495h-31v50h31v100c0 50 15 83 78 83h28v-50h-13c-19 0 -31 -9 -31 -41v-92h44v-50h-44v-495h-62z" />
    <glyph glyph-name="fl" unicode="&#xfb02;" horiz-adv-x="315" 
d="M210 0v722h62v-722h-62zM46 0v495h-31v50h31v100c0 50 15 83 78 83h28v-50h-13c-19 0 -31 -9 -31 -41v-92h44v-50h-44v-495h-62z" />
    <glyph glyph-name="endash" unicode="&#x2013;" horiz-adv-x="500" 
d="M0 325h500v-50h-500v50z" />
    <glyph glyph-name="dagger" unicode="&#x2020;" 
d="M108 545v177h62v-177h96v-50h-96v-495h-62v495h-96v50h96z" />
    <glyph glyph-name="daggerdbl" unicode="&#x2021;" 
d="M108 227v268h-96v50h96v177h62v-177h96v-50h-96v-268h96v-50h-96v-177h-62v177h-96v50h96z" />
    <glyph glyph-name="periodcentered" unicode="&#xb7;" horiz-adv-x="138" 
d="M13 319c0 31 25 56 56 56s56 -25 56 -56s-25 -56 -56 -56s-56 25 -56 56z" />
    <glyph glyph-name="paragraph" unicode="&#xb6;" horiz-adv-x="400" 
d="M267 0v672h-56v-672h-54v369c-93 13 -123 93 -123 177c0 102 44 176 156 176h131v-722h-54z" />
    <glyph glyph-name="bullet" unicode="&#x2022;" horiz-adv-x="500" 
d="M70 361c0 99 81 180 180 180s180 -81 180 -180s-81 -180 -180 -180s-180 81 -180 180z" />
    <glyph glyph-name="quotesinglbase" unicode="&#x201a;" horiz-adv-x="168" 
d="M29 -88l36 164h74l-56 -164h-54z" />
    <glyph glyph-name="quotedblbase" unicode="&#x201e;" 
d="M144 -88l36 164h74l-56 -164h-54zM24 -88l36 164h74l-56 -164h-54z" />
    <glyph glyph-name="quotedblright" unicode="&#x201d;" 
d="M144 558l36 164h74l-56 -164h-54zM24 558l36 164h74l-56 -164h-54z" />
    <glyph glyph-name="guillemotright" unicode="&#xbb;" 
d="M195 298l-49 214h50l61 -214l-57 -210h-54zM70 298l-49 214h50l61 -214l-57 -210h-54z" />
    <glyph glyph-name="ellipsis" unicode="&#x2026;" horiz-adv-x="1000" 
d="M134 0v76h66v-76h-66zM467 0v76h66v-76h-66zM800 0v76h66v-76h-66z" />
    <glyph glyph-name="perthousand" unicode="&#x2030;" horiz-adv-x="684" 
d="M31 456v194c0 54 27 78 81 78s81 -24 81 -78v-194c0 -54 -27 -78 -81 -78s-81 24 -81 78zM139 449v208c0 18 -6 31 -27 31s-27 -13 -27 -31v-208c1 -16 6 -31 27 -31s27 15 27 31zM286 72v194c0 54 27 78 81 78s81 -24 81 -78v-194c0 -54 -27 -78 -81 -78s-81 24 -81 78z
M394 65v208c0 18 -6 31 -27 31s-27 -13 -27 -31v-208c1 -16 6 -31 27 -31s27 15 27 31zM491 72v194c0 54 27 78 81 78s81 -24 81 -78v-194c0 -54 -27 -78 -81 -78s-81 24 -81 78zM599 65v208c0 18 -6 31 -27 31s-27 -13 -27 -31v-208c1 -16 6 -31 27 -31s27 15 27 31zM90 -6
l250 734h50l-250 -734h-50z" />
    <glyph glyph-name="questiondown" unicode="&#xbf;" 
d="M174 -9v94h62v-92c0 -56 -27 -101 -98 -101c-70 0 -96 33 -96 84v103c0 30 5 59 15 87l34 93c10 26 12 54 12 82v104h58v-106c0 -37 -3 -75 -16 -110l-26 -69c-8 -20 -11 -42 -11 -64v-112c0 -23 13 -36 32 -36c21 0 34 20 34 43zM99 544v76h66v-76h-66z" />
    <glyph glyph-name="grave" unicode="`" horiz-adv-x="148" 
d="M0 722h70l44 -108h-50z" />
    <glyph glyph-name="acute" unicode="&#xb4;" horiz-adv-x="148" 
d="M78 722h70l-64 -108h-50z" />
    <glyph glyph-name="circumflex" unicode="&#x2c6;" horiz-adv-x="148" 
d="M103 614l-29 72l-29 -72h-58l44 108h86l44 -108h-58z" />
    <glyph glyph-name="tilde" unicode="&#x2dc;" horiz-adv-x="148" 
d="M18 632h-34c0 32 14 67 59 67c27 0 47 -18 62 -18c10 0 24 8 25 23h34c0 -32 -14 -67 -59 -67c-27 0 -47 18 -62 18c-10 0 -24 -8 -25 -23z" />
    <glyph glyph-name="macron" unicode="&#xaf;" horiz-adv-x="148" 
d="M-15 645v44h178v-44h-178z" />
    <glyph glyph-name="breve" unicode="&#x2d8;" horiz-adv-x="148" 
d="M-17 704h34c0 -16 23 -32 57 -32s57 16 57 32h34c0 -64 -45 -76 -91 -76s-91 12 -91 76z" />
    <glyph glyph-name="dotaccent" unicode="&#x2d9;" horiz-adv-x="148" 
d="M43 628v76h62v-76h-62z" />
    <glyph glyph-name="dieresis" unicode="&#xa8;" horiz-adv-x="148" 
d="M-7 628v76h62v-76h-62zM93 628v76h62v-76h-62z" />
    <glyph glyph-name="ring" unicode="&#x2da;" horiz-adv-x="148" 
d="M7 663c0 37 30 67 67 67s67 -30 67 -67s-30 -67 -67 -67s-67 30 -67 67zM107 663c0 18 -15 33 -33 33s-33 -15 -33 -33s15 -33 33 -33s33 15 33 33z" />
    <glyph glyph-name="cedilla" unicode="&#xb8;" horiz-adv-x="148" 
d="M59 0h20l-8 -32c6 1 18 2 26 2c23 0 41 -18 41 -38c0 -15 -13 -46 -74 -46c-8 0 -23 1 -36 4l5 23c7 -2 14 -3 24 -3c11 0 35 4 35 21c0 13 -15 19 -21 19c-12 0 -18 -1 -24 -3z" />
    <glyph glyph-name="hungarumlaut" unicode="&#x2dd;" horiz-adv-x="148" 
d="M83 614l44 108h70l-64 -108h-50zM-17 614l44 108h70l-64 -108h-50z" />
    <glyph glyph-name="ogonek" unicode="&#x2db;" horiz-adv-x="148" 
d="M127 -78l10 -22c-15 -4 -42 -8 -65 -8c-45 0 -69 15 -69 37c0 27 36 61 76 75h36c-48 -31 -62 -48 -62 -65c0 -14 18 -23 42 -23c9 0 22 2 32 6z" />
    <glyph glyph-name="caron" unicode="&#x2c7;" horiz-adv-x="148" 
d="M74 650l29 72h58l-44 -108h-86l-44 108h58z" />
    <glyph glyph-name="emdash" unicode="&#x2014;" horiz-adv-x="1000" 
d="M0 325h1000v-50h-1000v50z" />
    <glyph glyph-name="AE" unicode="&#xc6;" horiz-adv-x="407" 
d="M237 0l-14 200h-112l-34 -200h-62l125 722h244v-56h-127l19 -263h103v-56h-100l21 -291h84v-56h-147zM220 256l-27 416h-2l-71 -416h100z" />
    <glyph glyph-name="ordfeminine" unicode="&#xaa;" horiz-adv-x="180" 
d="M111 459v109c-26 -3 -42 -11 -42 -38v-69c0 -23 4 -36 19 -36c13 0 23 12 23 34zM111 600v68c0 20 -7 28 -18 28c-18 0 -21 -13 -21 -32v-29h-46v39c0 33 31 54 68 54c40 0 63 -15 63 -57v-274h-37v17h-2c-11 -12 -22 -21 -47 -21c-31 0 -48 21 -48 54v78
c0 57 24 71 88 75z" />
    <glyph glyph-name="Lslash" unicode="&#x141;" horiz-adv-x="259" 
d="M0 244v66l51 55v357h66v-287l88 93v-66l-88 -93v-313h109v-56h-175v299z" />
    <glyph glyph-name="Oslash" unicode="&#xd8;" horiz-adv-x="334" 
d="M47 -29l19 72c-11 21 -15 45 -15 73v490c0 71 27 122 116 122c33 0 58 -7 75 -19l14 52l31 -10l-19 -73c11 -20 15 -44 15 -72v-490c0 -71 -27 -122 -116 -122c-33 0 -58 7 -75 20l-14 -53zM119 235l98 377c-1 36 -11 60 -50 60c-42 0 -50 -28 -50 -68v-369h2zM215 486
l-98 -381c0 -28 11 -55 50 -55c42 0 50 28 50 68v368h-2z" />
    <glyph glyph-name="OE" unicode="&#x152;" horiz-adv-x="407" 
d="M212 56v610h-37c-37 0 -58 -9 -58 -57v-496c0 -48 21 -57 58 -57h37zM278 56h106v-56h-214c-81 0 -119 39 -119 98v526c0 59 38 98 119 98h211v-56h-103v-263h98v-56h-98v-291z" />
    <glyph glyph-name="ordmasculine" unicode="&#xba;" horiz-adv-x="180" 
d="M67 663v-205c0 -24 9 -33 23 -33s23 9 23 33v205c0 24 -9 33 -23 33s-23 -9 -23 -33zM159 665v-209c0 -49 -32 -63 -69 -63s-69 14 -69 63v209c0 49 32 63 69 63s69 -14 69 -63z" />
    <glyph glyph-name="ae" unicode="&#xe6;" horiz-adv-x="407" 
d="M173 313v148c0 23 -15 40 -36 40s-36 -17 -36 -40v-75h-62v73c0 59 34 92 91 92c35 0 58 -15 76 -39c15 19 40 39 78 39c44 0 85 -16 85 -105v-189h-134v-158c0 -40 11 -55 36 -55c20 0 36 15 36 55v77h62v-77c0 -83 -50 -105 -98 -105c-32 0 -51 15 -65 40
c-22 -30 -37 -40 -75 -40c-53 0 -93 22 -93 92v121c0 73 46 106 114 106h21zM173 84v173c-53 0 -73 -8 -73 -54v-119c0 -26 15 -40 37 -40c21 0 36 14 36 40zM307 313v133c0 40 -11 55 -36 55s-36 -15 -36 -55v-133h72z" />
    <glyph glyph-name="dotlessi" unicode="&#x131;" horiz-adv-x="148" 
d="M43 0v545h62v-545h-62z" />
    <glyph glyph-name="lslash" unicode="&#x142;" horiz-adv-x="148" 
d="M105 453l43 46v-76l-43 -46v-377h-62v309l-43 -46v76l43 46v337h62v-269z" />
    <glyph glyph-name="oslash" unicode="&#xf8;" 
d="M100 194l80 241v11c0 40 -16 55 -41 55s-41 -15 -41 -55v-252h2zM180 99v259h-2l-80 -241v-18c0 -40 16 -55 41 -55s41 15 41 55zM212 528l20 54l23 -9l-25 -69c8 -15 12 -34 12 -58v-347c0 -83 -50 -105 -103 -105c-28 0 -55 6 -74 24l-19 -52l-23 9l24 68
c-7 15 -11 33 -11 56v347c0 83 50 105 103 105c28 0 54 -6 73 -23z" />
    <glyph glyph-name="oe" unicode="&#x153;" horiz-adv-x="407" 
d="M369 257h-134v-158c0 -40 11 -55 36 -55c20 0 36 15 36 55v77h62v-77c0 -83 -50 -105 -98 -105c-32 0 -51 15 -65 40h-2c-11 -24 -36 -40 -73 -40c-64 0 -93 32 -93 105v347c0 83 41 105 97 105c33 0 56 -15 71 -39c15 19 40 39 78 39c44 0 85 -16 85 -105v-189zM173 84
v377c0 23 -15 40 -36 40c-22 0 -37 -17 -37 -46v-359c0 -35 15 -52 37 -52c21 0 36 17 36 40zM307 313v133c0 40 -11 55 -36 55s-36 -15 -36 -55v-133h72z" />
    <glyph glyph-name="germandbls" unicode="&#xdf;" horiz-adv-x="370" 
d="M36 0v580c0 94 30 148 129 148c77 0 112 -47 112 -109v-119c-32 -13 -67 -31 -67 -63c0 -23 11 -37 22 -55l78 -125c19 -29 24 -52 24 -87v-83c0 -62 -35 -93 -101 -93c-59 0 -90 31 -90 92v76h62v-76c0 -29 13 -42 31 -42c26 0 36 20 36 40v86c0 25 -8 41 -13 50
l-88 145c-16 26 -23 43 -23 76c0 43 39 71 67 86v90c0 37 -13 61 -55 61c-52 0 -62 -38 -62 -75v-603h-62z" />
    <glyph glyph-name="divide" unicode="&#xf7;" horiz-adv-x="600" 
d="M47 228v50h506v-50h-506zM244 46c0 31 25 56 56 56s56 -25 56 -56s-25 -56 -56 -56s-56 25 -56 56zM244 460c0 31 25 56 56 56s56 -25 56 -56s-25 -56 -56 -56s-56 25 -56 56z" />
    <glyph glyph-name="threequarters" unicode="&#xbe;" horiz-adv-x="417" 
d="M316 146v231h-2l-46 -231h48zM89 0l194 722h50l-194 -722h-50zM316 0v110h-82v48l66 275h62v-287h32v-36h-32v-110h-46zM65 496v40h14c21 0 33 9 33 31v89c0 23 -7 36 -21 36c-16 0 -22 -13 -22 -36v-45h-46v51c0 39 20 66 68 66s67 -27 67 -66v-112
c0 -27 -12 -33 -31 -34v-2c19 0 31 -6 31 -33v-128c0 -39 -19 -66 -67 -66s-68 27 -68 66v59h46v-53c0 -22 6 -36 22 -36c15 0 21 14 21 36v106c0 22 -12 31 -33 31h-14z" />
    <glyph glyph-name="onequarter" unicode="&#xbc;" horiz-adv-x="417" 
d="M316 146v231h-2l-46 -231h48zM60 0l194 722h50l-194 -722h-50zM316 0v110h-82v48l66 275h62v-287h32v-36h-32v-110h-46zM58 291v383h-2c-4 -7 -23 -20 -33 -26v44c15 7 37 23 48 32h37v-433h-50z" />
    <glyph glyph-name="onesuperior" unicode="&#xb9;" horiz-adv-x="181" 
d="M68 291v383h-2c-4 -7 -23 -20 -33 -26v44c15 7 37 23 48 32h37v-433h-50z" />
    <glyph glyph-name="multiply" unicode="&#xd7;" horiz-adv-x="600" 
d="M299 288l191 191l36 -36l-191 -190l191 -190l-36 -36l-191 191l-189 -191l-36 36l190 190l-190 190l36 36z" />
    <glyph glyph-name="registered" unicode="&#xae;" horiz-adv-x="800" 
d="M33 361c0 203 164 367 367 367s367 -164 367 -367s-164 -367 -367 -367s-367 164 -367 367zM717 361c0 176 -141 317 -317 317s-317 -141 -317 -317s141 -317 317 -317s317 141 317 317zM530 132l-124 194h-93v-194h-50v436h167c99 0 142 -43 142 -121
c0 -77 -50 -111 -108 -121l128 -194h-62zM313 370h103c63 0 106 17 106 78s-51 76 -104 76h-105v-154z" />
    <glyph glyph-name="Thorn" unicode="&#xde;" 
d="M51 0v722h66v-124h39c85 0 110 -28 110 -110v-177c0 -82 -25 -110 -110 -110h-39v-201h-66zM117 257h32c30 0 51 8 51 45v195c0 37 -21 45 -51 45h-32v-285z" />
    <glyph glyph-name="brokenbar" unicode="&#xa6;" horiz-adv-x="222" 
d="M86 -6v275h50v-275h-50zM86 453v275h50v-275h-50z" />
    <glyph glyph-name="Eth" unicode="&#xd0;" horiz-adv-x="333" 
d="M57 403v319h113c90 0 112 -46 112 -117v-488c0 -71 -22 -117 -112 -117h-113v347h-32v56h32zM123 403h40v-56h-40v-291h35c44 0 58 14 58 56v498c0 42 -14 56 -58 56h-35v-263z" />
    <glyph glyph-name="onehalf" unicode="&#xbd;" horiz-adv-x="417" 
d="M60 0l194 722h50l-194 -722h-50zM58 291v383h-2c-4 -7 -23 -20 -33 -26v44c15 7 37 23 48 32h37v-433h-50zM255 0v40l77 214c14 38 15 62 15 83v28c0 24 -8 36 -20 36s-20 -12 -20 -36v-43h-46v50c0 43 20 65 68 65c43 0 64 -25 64 -64v-42c0 -28 -3 -47 -19 -92
l-72 -199h92v-40h-139z" />
    <glyph glyph-name="minus" unicode="&#x2212;" horiz-adv-x="600" 
d="M47 228v50h506v-50h-506z" />
    <glyph glyph-name="ccedilla" unicode="&#xe7;" horiz-adv-x="259" 
d="M223 173v-87c0 -59 -33 -92 -93 -92l-7 -26c6 1 18 2 26 2c23 0 41 -18 41 -38c0 -15 -13 -46 -74 -46c-8 0 -23 1 -36 4l5 23c7 -2 14 -3 24 -3c11 0 35 4 35 21c0 13 -15 19 -21 19c-12 0 -18 -1 -24 -3l11 48c-41 7 -74 32 -74 81v370c0 83 50 105 103 105
c54 0 84 -29 84 -88v-91h-62v84c0 34 -9 45 -29 45c-21 0 -34 -14 -34 -45v-371c0 -28 8 -41 31 -41s32 16 32 41v88h62z" />
    <glyph glyph-name="eth" unicode="&#xf0;" 
d="M180 99v347c0 40 -16 55 -41 55s-41 -15 -41 -55v-347c0 -40 16 -55 41 -55s41 15 41 55zM216 742l26 -29l-64 -47c57 -66 64 -168 64 -253v-314c0 -83 -50 -105 -103 -105s-103 22 -103 105v347c0 83 50 105 103 105c12 0 28 -4 36 -16h2c-2 36 -24 87 -40 102l-66 -48
l-25 28l66 48c-15 15 -32 31 -51 45l40 31c20 -15 38 -31 52 -46z" />
    <glyph glyph-name="plusminus" unicode="&#xb1;" horiz-adv-x="600" 
d="M275 323v183h50v-183h228v-50h-228v-183h-50v183h-228v50h228zM47 0v50h506v-50h-506z" />
    <glyph glyph-name="Ccedilla" unicode="&#xc7;" 
d="M257 197v-103c0 -61 -34 -100 -103 -100l-7 -26c6 1 18 2 26 2c23 0 41 -18 41 -38c0 -15 -13 -46 -74 -46c-8 0 -23 1 -36 4l5 23c7 -2 14 -3 24 -3c11 0 35 4 35 21c0 13 -15 19 -21 19c-12 0 -18 -1 -24 -3l11 49c-56 6 -83 43 -83 98v534c0 61 34 100 103 100
s103 -39 103 -100v-95h-66v93c0 31 -11 46 -37 46s-37 -15 -37 -46v-530c0 -31 11 -46 37 -46s37 15 37 46v101h66z" />
    <glyph glyph-name="thorn" unicode="&#xfe;" 
d="M36 -108v830h58v-211h2c14 25 35 40 66 40c40 0 80 -24 80 -106v-366c0 -49 -28 -85 -71 -85c-32 0 -58 15 -71 40h-2v-142h-62zM180 113v330c0 38 -11 58 -36 58s-46 -16 -46 -60v-331c0 -34 18 -60 45 -60c25 0 37 23 37 63z" />
    <glyph glyph-name="copyright" unicode="&#xa9;" horiz-adv-x="800" 
d="M543 286h54c-22 -93 -93 -158 -185 -158c-136 0 -223 102 -223 234c0 133 82 231 220 231c95 0 174 -55 188 -153h-54c-12 57 -61 103 -133 103c-108 0 -167 -81 -167 -180c0 -96 64 -185 169 -185c71 0 120 48 131 108zM33 361c0 203 164 367 367 367s367 -164 367 -367
s-164 -367 -367 -367s-367 164 -367 367zM717 361c0 176 -141 317 -317 317s-317 -141 -317 -317s141 -317 317 -317s317 141 317 317z" />
    <glyph glyph-name="logicalnot" unicode="&#xac;" horiz-adv-x="600" 
d="M503 108v217h-456v50h506v-267h-50z" />
    <glyph glyph-name="twosuperior" unicode="&#xb2;" horiz-adv-x="181" 
d="M21 291v40l77 214c14 38 15 62 15 83v28c0 24 -8 36 -20 36s-20 -12 -20 -36v-43h-46v50c0 43 20 65 68 65c43 0 64 -25 64 -64v-42c0 -28 -3 -47 -19 -92l-72 -199h92v-40h-139z" />
    <glyph glyph-name="threesuperior" unicode="&#xb3;" horiz-adv-x="181" 
d="M65 496v40h14c21 0 33 9 33 31v89c0 23 -7 36 -21 36c-16 0 -22 -13 -22 -36v-45h-46v51c0 39 20 66 68 66s67 -27 67 -66v-112c0 -27 -12 -33 -31 -34v-2c19 0 31 -6 31 -33v-128c0 -39 -19 -66 -67 -66s-68 27 -68 66v59h46v-53c0 -22 6 -36 22 -36c15 0 21 14 21 36
v106c0 22 -12 31 -33 31h-14z" />
    <glyph glyph-name="trademark" unicode="&#x2122;" horiz-adv-x="990" 
d="M199 310v368h-135v44h320v-44h-135v-368h-50zM818 310v368h-2l-149 -368h-30l-149 368h-2v-368h-50v412h85l131 -336l131 336h85v-412h-50z" />
    <glyph glyph-name="degree" unicode="&#xb0;" horiz-adv-x="400" 
d="M82 610c0 65 53 118 118 118s118 -53 118 -118s-53 -118 -118 -118s-118 53 -118 118zM126 610c0 -41 33 -74 74 -74s74 33 74 74s-33 74 -74 74s-74 -33 -74 -74z" />
    <glyph glyph-name="mu" unicode="&#xb5;" 
d="M242 545v-545h-58v37h-2c-10 -21 -33 -43 -55 -43c-13 0 -23 8 -27 20h-2v-122h-62v653h62v-445c0 -29 11 -50 39 -50c29 0 43 28 43 50v445h62z" />
    <glyph glyph-name="Aacute" unicode="&#xc1;" horiz-adv-x="332" 
d="M251 0l-27 200h-116l-27 -200h-66l106 722h90l106 -722h-66zM217 256l-50 416h-2l-50 -416h102zM176 861h70l-64 -108h-50z" />
    <glyph glyph-name="Acircumflex" unicode="&#xc2;" horiz-adv-x="332" 
d="M251 0l-27 200h-116l-27 -200h-66l106 722h90l106 -722h-66zM217 256l-50 416h-2l-50 -416h102zM201 753l-29 72l-29 -72h-58l44 108h86l44 -108h-58z" />
    <glyph glyph-name="Adieresis" unicode="&#xc4;" horiz-adv-x="332" 
d="M251 0l-27 200h-116l-27 -200h-66l106 722h90l106 -722h-66zM217 256l-50 416h-2l-50 -416h102zM91 767v76h62v-76h-62zM191 767v76h62v-76h-62z" />
    <glyph glyph-name="Agrave" unicode="&#xc0;" horiz-adv-x="332" 
d="M251 0l-27 200h-116l-27 -200h-66l106 722h90l106 -722h-66zM217 256l-50 416h-2l-50 -416h102zM98 861h70l44 -108h-50z" />
    <glyph glyph-name="Aring" unicode="&#xc5;" horiz-adv-x="332" 
d="M251 0l-27 200h-116l-27 -200h-66l106 722h90l106 -722h-66zM217 256l-50 416h-2l-50 -416h102zM105 808c0 37 30 67 67 67s67 -30 67 -67s-30 -67 -67 -67s-67 30 -67 67zM205 808c0 18 -15 33 -33 33s-33 -15 -33 -33s15 -33 33 -33s33 15 33 33z" />
    <glyph glyph-name="Atilde" unicode="&#xc3;" horiz-adv-x="332" 
d="M251 0l-27 200h-116l-27 -200h-66l106 722h90l106 -722h-66zM217 256l-50 416h-2l-50 -416h102zM116 771h-34c0 32 14 67 59 67c27 0 47 -18 62 -18c10 0 24 8 25 23h34c0 -32 -14 -67 -59 -67c-27 0 -47 18 -62 18c-10 0 -24 -8 -25 -23z" />
    <glyph glyph-name="Eacute" unicode="&#xc9;" horiz-adv-x="259" 
d="M51 0v722h175v-56h-109v-263h104v-56h-104v-291h109v-56h-175zM146 861h70l-64 -108h-50z" />
    <glyph glyph-name="Ecircumflex" unicode="&#xca;" horiz-adv-x="259" 
d="M51 0v722h175v-56h-109v-263h104v-56h-104v-291h109v-56h-175zM171 753l-29 72l-29 -72h-58l44 108h86l44 -108h-58z" />
    <glyph glyph-name="Edieresis" unicode="&#xcb;" horiz-adv-x="259" 
d="M51 0v722h175v-56h-109v-263h104v-56h-104v-291h109v-56h-175zM61 767v76h62v-76h-62zM161 767v76h62v-76h-62z" />
    <glyph glyph-name="Egrave" unicode="&#xc8;" horiz-adv-x="259" 
d="M51 0v722h175v-56h-109v-263h104v-56h-104v-291h109v-56h-175zM68 861h70l44 -108h-50z" />
    <glyph glyph-name="Iacute" unicode="&#xcd;" horiz-adv-x="168" 
d="M51 0v722h66v-722h-66zM88 861h70l-64 -108h-50z" />
    <glyph glyph-name="Icircumflex" unicode="&#xce;" horiz-adv-x="168" 
d="M51 0v722h66v-722h-66zM113 753l-29 72l-29 -72h-58l44 108h86l44 -108h-58z" />
    <glyph glyph-name="Idieresis" unicode="&#xcf;" horiz-adv-x="168" 
d="M51 0v722h66v-722h-66zM3 767v76h62v-76h-62zM103 767v76h62v-76h-62z" />
    <glyph glyph-name="Igrave" unicode="&#xcc;" horiz-adv-x="168" 
d="M51 0v722h66v-722h-66zM10 861h70l44 -108h-50z" />
    <glyph glyph-name="Ntilde" unicode="&#xd1;" horiz-adv-x="333" 
d="M227 104v618h58v-722h-94l-83 642h-2v-642h-58v722h96l81 -618h2zM111 771h-34c0 32 14 67 59 67c27 0 47 -18 62 -18c10 0 24 8 25 23h34c0 -32 -14 -67 -59 -67c-27 0 -47 18 -62 18c-10 0 -24 -8 -25 -23z" />
    <glyph glyph-name="Oacute" unicode="&#xd3;" horiz-adv-x="334" 
d="M51 116v490c0 71 27 122 116 122s116 -51 116 -122v-490c0 -71 -27 -122 -116 -122s-116 51 -116 122zM117 604v-486c0 -40 8 -68 50 -68s50 28 50 68v486c0 40 -8 68 -50 68s-50 -28 -50 -68zM171 861h70l-64 -108h-50z" />
    <glyph glyph-name="Ocircumflex" unicode="&#xd4;" horiz-adv-x="334" 
d="M51 116v490c0 71 27 122 116 122s116 -51 116 -122v-490c0 -71 -27 -122 -116 -122s-116 51 -116 122zM117 604v-486c0 -40 8 -68 50 -68s50 28 50 68v486c0 40 -8 68 -50 68s-50 -28 -50 -68zM196 753l-29 72l-29 -72h-58l44 108h86l44 -108h-58z" />
    <glyph glyph-name="Odieresis" unicode="&#xd6;" horiz-adv-x="334" 
d="M51 116v490c0 71 27 122 116 122s116 -51 116 -122v-490c0 -71 -27 -122 -116 -122s-116 51 -116 122zM117 604v-486c0 -40 8 -68 50 -68s50 28 50 68v486c0 40 -8 68 -50 68s-50 -28 -50 -68zM86 767v76h62v-76h-62zM186 767v76h62v-76h-62z" />
    <glyph glyph-name="Ograve" unicode="&#xd2;" horiz-adv-x="334" 
d="M51 116v490c0 71 27 122 116 122s116 -51 116 -122v-490c0 -71 -27 -122 -116 -122s-116 51 -116 122zM117 604v-486c0 -40 8 -68 50 -68s50 28 50 68v486c0 40 -8 68 -50 68s-50 -28 -50 -68zM93 861h70l44 -108h-50z" />
    <glyph glyph-name="Otilde" unicode="&#xd5;" horiz-adv-x="334" 
d="M51 116v490c0 71 27 122 116 122s116 -51 116 -122v-490c0 -71 -27 -122 -116 -122s-116 51 -116 122zM117 604v-486c0 -40 8 -68 50 -68s50 28 50 68v486c0 40 -8 68 -50 68s-50 -28 -50 -68zM111 771h-34c0 32 14 67 59 67c27 0 47 -18 62 -18c10 0 24 8 25 23h34
c0 -32 -14 -67 -59 -67c-27 0 -47 18 -62 18c-10 0 -24 -8 -25 -23z" />
    <glyph glyph-name="Scaron" unicode="&#x160;" 
d="M178 535v88c0 28 -7 49 -38 49s-38 -21 -38 -49v-76c0 -23 4 -46 15 -65l105 -180c15 -25 24 -56 24 -88v-114c0 -68 -40 -106 -106 -106c-73 0 -108 33 -108 106v99h66v-95c0 -34 13 -54 42 -54c27 0 40 20 40 54v101c0 25 -5 44 -19 69l-97 169c-18 31 -28 55 -28 92
v87c0 71 37 106 104 106c74 0 104 -35 104 -101v-92h-66zM139 789l29 72h58l-44 -108h-86l-44 108h58z" />
    <glyph glyph-name="Uacute" unicode="&#xda;" horiz-adv-x="334" 
d="M217 118v604h66v-625c0 -80 -60 -103 -117 -103c-55 0 -115 23 -115 103v625h66v-604c0 -52 17 -68 50 -68c34 0 50 16 50 68zM171 861h70l-64 -108h-50z" />
    <glyph glyph-name="Ucircumflex" unicode="&#xdb;" horiz-adv-x="334" 
d="M217 118v604h66v-625c0 -80 -60 -103 -117 -103c-55 0 -115 23 -115 103v625h66v-604c0 -52 17 -68 50 -68c34 0 50 16 50 68zM196 753l-29 72l-29 -72h-58l44 108h86l44 -108h-58z" />
    <glyph glyph-name="Udieresis" unicode="&#xdc;" horiz-adv-x="334" 
d="M217 118v604h66v-625c0 -80 -60 -103 -117 -103c-55 0 -115 23 -115 103v625h66v-604c0 -52 17 -68 50 -68c34 0 50 16 50 68zM86 767v76h62v-76h-62zM186 767v76h62v-76h-62z" />
    <glyph glyph-name="Ugrave" unicode="&#xd9;" horiz-adv-x="334" 
d="M217 118v604h66v-625c0 -80 -60 -103 -117 -103c-55 0 -115 23 -115 103v625h66v-604c0 -52 17 -68 50 -68c34 0 50 16 50 68zM93 861h70l44 -108h-50z" />
    <glyph glyph-name="Yacute" unicode="&#xdd;" 
d="M140 394l63 328h66l-97 -408v-314h-66v314l-97 408h66l63 -328h2zM143 861h70l-64 -108h-50z" />
    <glyph glyph-name="Ydieresis" unicode="&#x178;" 
d="M140 394l63 328h66l-97 -408v-314h-66v314l-97 408h66l63 -328h2zM58 767v76h62v-76h-62zM158 767v76h62v-76h-62z" />
    <glyph glyph-name="Zcaron" unicode="&#x17d;" horiz-adv-x="259" 
d="M24 68l149 598h-140v56h202v-56l-149 -610h148v-56h-210v68zM130 789l29 72h58l-44 -108h-86l-44 108h58z" />
    <glyph glyph-name="aacute" unicode="&#xe1;" 
d="M180 100v187c-32 0 -82 -13 -82 -59v-124c0 -39 6 -60 39 -60c27 0 43 20 43 56zM180 337v118c0 33 -11 46 -36 46c-35 0 -40 -21 -40 -53v-51h-62v64c0 56 47 90 104 90c60 0 96 -25 96 -95v-456h-58v29h-2c-17 -21 -35 -35 -72 -35c-48 0 -74 35 -74 90v148
c0 68 46 105 144 105zM149 722h70l-64 -108h-50z" />
    <glyph glyph-name="acircumflex" unicode="&#xe2;" 
d="M180 100v187c-32 0 -82 -13 -82 -59v-124c0 -39 6 -60 39 -60c27 0 43 20 43 56zM180 337v118c0 33 -11 46 -36 46c-35 0 -40 -21 -40 -53v-51h-62v64c0 56 47 90 104 90c60 0 96 -25 96 -95v-456h-58v29h-2c-17 -21 -35 -35 -72 -35c-48 0 -74 35 -74 90v148
c0 68 46 105 144 105zM174 614l-29 72l-29 -72h-58l44 108h86l44 -108h-58z" />
    <glyph glyph-name="adieresis" unicode="&#xe4;" 
d="M180 100v187c-32 0 -82 -13 -82 -59v-124c0 -39 6 -60 39 -60c27 0 43 20 43 56zM180 337v118c0 33 -11 46 -36 46c-35 0 -40 -21 -40 -53v-51h-62v64c0 56 47 90 104 90c60 0 96 -25 96 -95v-456h-58v29h-2c-17 -21 -35 -35 -72 -35c-48 0 -74 35 -74 90v148
c0 68 46 105 144 105zM64 628v76h62v-76h-62zM164 628v76h62v-76h-62z" />
    <glyph glyph-name="agrave" unicode="&#xe0;" 
d="M180 100v187c-32 0 -82 -13 -82 -59v-124c0 -39 6 -60 39 -60c27 0 43 20 43 56zM180 337v118c0 33 -11 46 -36 46c-35 0 -40 -21 -40 -53v-51h-62v64c0 56 47 90 104 90c60 0 96 -25 96 -95v-456h-58v29h-2c-17 -21 -35 -35 -72 -35c-48 0 -74 35 -74 90v148
c0 68 46 105 144 105zM71 722h70l44 -108h-50z" />
    <glyph glyph-name="aring" unicode="&#xe5;" 
d="M180 100v187c-32 0 -82 -13 -82 -59v-124c0 -39 6 -60 39 -60c27 0 43 20 43 56zM180 337v118c0 33 -11 46 -36 46c-35 0 -40 -21 -40 -53v-51h-62v64c0 56 47 90 104 90c60 0 96 -25 96 -95v-456h-58v29h-2c-17 -21 -35 -35 -72 -35c-48 0 -74 35 -74 90v148
c0 68 46 105 144 105zM78 663c0 37 30 67 67 67s67 -30 67 -67s-30 -67 -67 -67s-67 30 -67 67zM178 663c0 18 -15 33 -33 33s-33 -15 -33 -33s15 -33 33 -33s33 15 33 33z" />
    <glyph glyph-name="atilde" unicode="&#xe3;" 
d="M180 100v187c-32 0 -82 -13 -82 -59v-124c0 -39 6 -60 39 -60c27 0 43 20 43 56zM180 337v118c0 33 -11 46 -36 46c-35 0 -40 -21 -40 -53v-51h-62v64c0 56 47 90 104 90c60 0 96 -25 96 -95v-456h-58v29h-2c-17 -21 -35 -35 -72 -35c-48 0 -74 35 -74 90v148
c0 68 46 105 144 105zM89 632h-34c0 32 14 67 59 67c27 0 47 -18 62 -18c10 0 24 8 25 23h34c0 -32 -14 -67 -59 -67c-27 0 -47 18 -62 18c-10 0 -24 -8 -25 -23z" />
    <glyph glyph-name="eacute" unicode="&#xe9;" 
d="M180 313v133c0 40 -16 55 -41 55s-41 -15 -41 -55v-133h82zM180 99v77h62v-77c0 -83 -50 -105 -103 -105s-103 22 -103 105v347c0 83 50 105 103 105s103 -22 103 -105v-189h-144v-158c0 -40 16 -55 41 -55s41 15 41 55zM143 722h70l-64 -108h-50z" />
    <glyph glyph-name="ecircumflex" unicode="&#xea;" 
d="M180 313v133c0 40 -16 55 -41 55s-41 -15 -41 -55v-133h82zM180 99v77h62v-77c0 -83 -50 -105 -103 -105s-103 22 -103 105v347c0 83 50 105 103 105s103 -22 103 -105v-189h-144v-158c0 -40 16 -55 41 -55s41 15 41 55zM168 614l-29 72l-29 -72h-58l44 108h86l44 -108
h-58z" />
    <glyph glyph-name="edieresis" unicode="&#xeb;" 
d="M180 313v133c0 40 -16 55 -41 55s-41 -15 -41 -55v-133h82zM180 99v77h62v-77c0 -83 -50 -105 -103 -105s-103 22 -103 105v347c0 83 50 105 103 105s103 -22 103 -105v-189h-144v-158c0 -40 16 -55 41 -55s41 15 41 55zM58 628v76h62v-76h-62zM158 628v76h62v-76h-62z
" />
    <glyph glyph-name="egrave" unicode="&#xe8;" 
d="M180 313v133c0 40 -16 55 -41 55s-41 -15 -41 -55v-133h82zM180 99v77h62v-77c0 -83 -50 -105 -103 -105s-103 22 -103 105v347c0 83 50 105 103 105s103 -22 103 -105v-189h-144v-158c0 -40 16 -55 41 -55s41 15 41 55zM65 722h70l44 -108h-50z" />
    <glyph glyph-name="iacute" unicode="&#xed;" horiz-adv-x="148" 
d="M43 0v545h62v-545h-62zM78 722h70l-64 -108h-50z" />
    <glyph glyph-name="icircumflex" unicode="&#xee;" horiz-adv-x="148" 
d="M43 0v545h62v-545h-62zM103 614l-29 72l-29 -72h-58l44 108h86l44 -108h-58z" />
    <glyph glyph-name="idieresis" unicode="&#xef;" horiz-adv-x="148" 
d="M43 0v545h62v-545h-62zM-7 628v76h62v-76h-62zM93 628v76h62v-76h-62z" />
    <glyph glyph-name="igrave" unicode="&#xec;" horiz-adv-x="148" 
d="M43 0v545h62v-545h-62zM0 722h70l44 -108h-50z" />
    <glyph glyph-name="ntilde" unicode="&#xf1;" 
d="M36 0v545h58v-37h2c14 23 40 43 72 43c51 0 74 -38 74 -82v-469h-62v445c0 29 -11 50 -39 50c-29 0 -43 -28 -43 -50v-445h-62zM83 632h-34c0 32 14 67 59 67c27 0 47 -18 62 -18c10 0 24 8 25 23h34c0 -32 -14 -67 -59 -67c-27 0 -47 18 -62 18c-10 0 -24 -8 -25 -23z
" />
    <glyph glyph-name="oacute" unicode="&#xf3;" 
d="M180 99v347c0 40 -16 55 -41 55s-41 -15 -41 -55v-347c0 -40 16 -55 41 -55s41 15 41 55zM36 99v347c0 83 50 105 103 105s103 -22 103 -105v-347c0 -83 -50 -105 -103 -105s-103 22 -103 105zM143 722h70l-64 -108h-50z" />
    <glyph glyph-name="ocircumflex" unicode="&#xf4;" 
d="M180 99v347c0 40 -16 55 -41 55s-41 -15 -41 -55v-347c0 -40 16 -55 41 -55s41 15 41 55zM36 99v347c0 83 50 105 103 105s103 -22 103 -105v-347c0 -83 -50 -105 -103 -105s-103 22 -103 105zM168 614l-29 72l-29 -72h-58l44 108h86l44 -108h-58z" />
    <glyph glyph-name="odieresis" unicode="&#xf6;" 
d="M180 99v347c0 40 -16 55 -41 55s-41 -15 -41 -55v-347c0 -40 16 -55 41 -55s41 15 41 55zM36 99v347c0 83 50 105 103 105s103 -22 103 -105v-347c0 -83 -50 -105 -103 -105s-103 22 -103 105zM58 628v76h62v-76h-62zM158 628v76h62v-76h-62z" />
    <glyph glyph-name="ograve" unicode="&#xf2;" 
d="M180 99v347c0 40 -16 55 -41 55s-41 -15 -41 -55v-347c0 -40 16 -55 41 -55s41 15 41 55zM36 99v347c0 83 50 105 103 105s103 -22 103 -105v-347c0 -83 -50 -105 -103 -105s-103 22 -103 105zM65 722h70l44 -108h-50z" />
    <glyph glyph-name="otilde" unicode="&#xf5;" 
d="M180 99v347c0 40 -16 55 -41 55s-41 -15 -41 -55v-347c0 -40 16 -55 41 -55s41 15 41 55zM36 99v347c0 83 50 105 103 105s103 -22 103 -105v-347c0 -83 -50 -105 -103 -105s-103 22 -103 105zM83 632h-34c0 32 14 67 59 67c27 0 47 -18 62 -18c10 0 24 8 25 23h34
c0 -32 -14 -67 -59 -67c-27 0 -47 18 -62 18c-10 0 -24 -8 -25 -23z" />
    <glyph glyph-name="scaron" unicode="&#x161;" horiz-adv-x="259" 
d="M163 383v81c0 25 -12 37 -32 37c-25 0 -32 -18 -32 -39v-61c0 -16 7 -31 23 -54l78 -109c15 -21 22 -35 22 -60v-92c0 -59 -33 -92 -93 -92c-51 0 -92 24 -92 85v95h62v-84c0 -25 4 -46 31 -46c25 0 30 22 30 47v66c0 20 -8 40 -23 60l-71 97c-18 24 -29 43 -29 73v70
c0 60 41 94 97 94c66 0 87 -45 87 -78v-90h-58zM130 650l29 72h58l-44 -108h-86l-44 108h58z" />
    <glyph glyph-name="uacute" unicode="&#xfa;" 
d="M242 545v-545h-58v37h-2c-14 -23 -40 -43 -72 -43c-51 0 -74 38 -74 82v469h62v-445c0 -29 11 -50 39 -50c29 0 43 28 43 50v445h62zM143 722h70l-64 -108h-50z" />
    <glyph glyph-name="ucircumflex" unicode="&#xfb;" 
d="M242 545v-545h-58v37h-2c-14 -23 -40 -43 -72 -43c-51 0 -74 38 -74 82v469h62v-445c0 -29 11 -50 39 -50c29 0 43 28 43 50v445h62zM168 614l-29 72l-29 -72h-58l44 108h86l44 -108h-58z" />
    <glyph glyph-name="udieresis" unicode="&#xfc;" 
d="M242 545v-545h-58v37h-2c-14 -23 -40 -43 -72 -43c-51 0 -74 38 -74 82v469h62v-445c0 -29 11 -50 39 -50c29 0 43 28 43 50v445h62zM58 628v76h62v-76h-62zM158 628v76h62v-76h-62z" />
    <glyph glyph-name="ugrave" unicode="&#xf9;" 
d="M242 545v-545h-58v37h-2c-14 -23 -40 -43 -72 -43c-51 0 -74 38 -74 82v469h62v-445c0 -29 11 -50 39 -50c29 0 43 28 43 50v445h62zM65 722h70l44 -108h-50z" />
    <glyph glyph-name="yacute" unicode="&#xfd;" horiz-adv-x="259" 
d="M241 545l-104 -653h-62l22 108l-79 545h62l44 -367h2l53 367h62zM134 722h70l-64 -108h-50z" />
    <glyph glyph-name="ydieresis" unicode="&#xff;" horiz-adv-x="259" 
d="M241 545l-104 -653h-62l22 108l-79 545h62l44 -367h2l53 367h62zM49 628v76h62v-76h-62zM149 628v76h62v-76h-62z" />
    <glyph glyph-name="zcaron" unicode="&#x17e;" horiz-adv-x="204" 
d="M18 72l104 423h-98v50h160v-54l-108 -441h110v-50h-168v72zM102 650l29 72h58l-44 -108h-86l-44 108h58z" />
    </font>
</defs>
</svg>
